<?xml version="1.0" encoding="UTF-8"?><svg id="Laag_1" xmlns="http://www.w3.org/2000/svg" viewBox="0 0 774.08 426.13"><defs><style>.cls-1{fill:#1d1d1b;}</style></defs><path class="cls-1" d="M410.21,125.1h320.39c15.69,0,30.73-13.8,30-30s-13.18-30-30-30H410.21c-15.69,0-30.73,13.8-30,30s13.18,30,30,30h0Z"/><path class="cls-1" d="M410.21,211.13h320.39c15.69,0,30.73-13.8,30-30s-13.18-30-30-30H410.21c-15.69,0-30.73,13.8-30,30s13.18,30,30,30h0Z"/><path class="cls-1" d="M410.21,297.15h320.39c15.69,0,30.73-13.8,30-30s-13.18-30-30-30H410.21c-15.69,0-30.73,13.8-30,30s13.18,30,30,30h0Z"/><path class="cls-1" d="M410.21,383.17h320.39c15.69,0,30.73-13.8,30-30s-13.18-30-30-30H410.21c-15.69,0-30.73,13.8-30,30s13.18,30,30,30h0Z"/><path class="cls-1" d="M86.94,384.33V63.94c0-15.69-13.8-30.73-30-30s-30,13.18-30,30V384.33c0,15.69,13.8,30.73,30,30s30-13.18,30-30h0Z"/><path class="cls-1" d="M172.96,384.33V63.94c0-15.69-13.8-30.73-30-30s-30,13.18-30,30V384.33c0,15.69,13.8,30.73,30,30s30-13.18,30-30h0Z"/><path class="cls-1" d="M258.99,384.33V63.94c0-15.69-13.8-30.73-30-30s-30,13.18-30,30V384.33c0,15.69,13.8,30.73,30,30s30-13.18,30-30h0Z"/><path class="cls-1" d="M345.01,384.33V63.94c0-15.69-13.8-30.73-30-30s-30,13.18-30,30V384.33c0,15.69,13.8,30.73,30,30s30-13.18,30-30h0Z"/></svg>